<?xml version="1.0" ?><!DOCTYPE svg  PUBLIC '-//W3C//DTD SVG 1.1//EN'  'http://www.w3.org/Graphics/SVG/1.1/DTD/svg11.dtd'><svg enable-background="new 0 0 64 64" height="64px" id="Layer_1" version="1.1" viewBox="0 0 64 64" width="64px" xml:space="preserve" xmlns="http://www.w3.org/2000/svg" xmlns:xlink="http://www.w3.org/1999/xlink"><g><g><path d="M32,0.5C14.604,0.5,0.381,13.559,0.381,29.667C0.381,38.845,5,47.033,12,52.38V63.5l10.847-5.886    c2.862,0.793,5.954,1.22,9.094,1.22c17.396,0,31.53-13.059,31.53-29.167S49.396,0.5,32,0.5z M35.132,39.778l-8.023-8.556    l-15.652,8.556L28.675,21.5l8.217,8.556L52.349,21.5L35.132,39.778z" fill="#3AD5F9"/></g><g><path d="M32,2.911c-17.396,0-31.619,10.647-31.619,26.756C0.381,38.845,5,47.033,12,52.38V63.5l10.847-5.886    c2.862,0.793,5.954,1.22,9.094,1.22c17.396,0,31.53-13.059,31.53-29.167S49.396,2.911,32,2.911z M35.132,39.778l-8.023-8.556    l-15.652,8.556L28.675,21.5l8.217,8.556L52.349,21.5L35.132,39.778z" fill="#0382F9"/></g><g><polygon fill="#0656F7" points="50.514,22.516 35.806,28.925 36.892,30.055   "/><path d="M52.004,21.866L35.132,39.778l-7.03-7.496l-14.46,6.301l-2.185,1.195l0.387-0.411l-8.068,3.464    C5.806,46.537,8.578,49.811,12,52.38V63.5l10.847-5.886c2.862,0.793,5.954,1.22,9.094,1.22c17.396,0,31.53-13.059,31.53-29.167    c0-4.149-1.096-8.018-2.782-11.591L52.004,21.866z" fill="#0656F7"/></g></g></svg>